<svg width="45" height="60" viewBox="0 0 45 60" fill="none" xmlns="http://www.w3.org/2000/svg">
<path d="M6.26873 24.6978C7.69478 23.4682 8.9397 22.1921 10.3921 21.1731C21.2308 13.5631 36.7758 17.3263 42.4405 28.8915C46.8306 37.8519 44.5285 48.5654 36.5848 54.5617C29.3096 60.0531 21.0661 60.846 12.6876 57.2966C4.57921 53.8617 0.284569 47.5185 0.119897 39.1806C-0.120523 27.092 0.0704935 14.9971 0.096841 2.90849C0.100134 1.12446 1.34506 -0.0153305 3.15645 0.000155848C5.02383 0.0156422 6.24569 1.14615 6.26215 2.99522C6.29509 7.20441 6.27532 11.4136 6.27532 15.6228C6.26873 18.6302 6.26873 21.6408 6.26873 24.6978ZM38.5608 39.159C38.5575 35.1604 37.7078 32.1529 36.2192 29.8764C33.2518 25.3389 28.9144 22.9757 23.2958 22.6319C17.4862 22.2757 12.681 24.2084 9.32174 28.6623C5.27082 34.0392 4.94807 39.924 8.01096 45.7747C12.1146 53.617 21.6556 55.8223 29.112 52.5856C35.5144 49.8074 38.3303 44.7247 38.5608 39.159Z" fill="#EC2323"/>
</svg>
